<svg xmlns="http://www.w3.org/2000/svg" width="646.64" height="150" viewBox="0 0 646.64 150"><g fill="#005cb9"><path d="m10.303 75.001 21.41-45.32c1.322-2.806 2.5-6.493-.89-11.508L22.853 5.62c-2.213-2.359-2.073-5.62 1.323-5.62h102.747l32.186 68.652c.885 2.073 1.916 4.135 2.953 6.348 4.28 9.016 8.858 19.057 9.447 29.233C173.577 135.825 143.163 150 122.935 150H48.68c-27.014 0-50.486-20.076-48.564-45.767.443-4.578 1.042-9.156 3.104-13.577 1.177-2.813 2.062-4.73 3.245-7.385zm132.563 0-26.722-56.828h-67.61c1.037 3.244 4.572 8.41 2.36 12.4L29.941 75l-3.855 8.125c-3.082 8.12-6.78 12.546-6.78 21.108 0 18.311 15.796 27.602 29.227 27.602h74.4c14.474 0 29.228-10.333 29.228-27.602 0-7.24-2.36-14.177-5.307-20.665z"/><path d="M120.912 68.214V47.106l-23.03-13.14-23.326 13.432V60.24l-11.218-6.348-23.92 13.442v25.983l23.769 13.874 11.515-6.506v12.854l12.55 7.234 10.63 6.046 10.624-6.046 12.406-7.094V86.671l-10.938-6.197 10.938-6.505zm2.947-7.536 9.89 5.463v27.613l-9.89 6.343v15.202l-9.593 5.474-16.535 9.301-13.285-7.53-9.744 5.166-12.546-6.937-12.255-6.786v-11.083L36.32 94.936V65.855l13.728-7.828v-10.92L74.993 32.79l9.593 5.458 13.296-7.526 26.05 14.76zm7.682 7.536-7.536-4.135v8.416zm-50.345 52.559-6.64-3.844v7.688l6.937-3.698zM53 52.278v3.984l6.931-3.984L53 48.283z"/><path d="m83.706 68.214 2.365-1.322-9.599-5.324V48.283l7.083 3.995 14.17 7.962v27.305l10.333-6.046 11.363 6.489-22.144 12.557-22.721-13V98.18l-11.963 6.937V80.026zM341.906 87.116l39.42-69.829h26.424l1.771 69.829 1.026 44.72h-28.045l-1.037-11.51h-25.242l-5.906 11.51h-33.654zm37.794 0-.896-12.266-6.046 12.266-6.052 12.248h14.025zM432.511 61.568l11.812-44.282h43.55c4.571 0 10.623 3.535 14.612 8.27 8.27 8.999 8.12 23.618 6.192 36.012a89 89 0 0 1-.443 2.959c-3.238 15.359-8.853 28.93-19.92 38.68-4.728 3.843-11.368 7.233-18.748 7.233H450.23l-5.906 21.4h-30.415zm46.648 0c4.169-19.69 2.454-26.458-5.463-27.153h-3.693l-7.082 27.153-7.083 27.165h3.541c6.057 0 8.86-3.395 11.666-7.234 2.802-3.692 6.052-11.223 8.114-19.93M229.672 131.996h-29.67l29.961-114.56h33.956l6.355 56.095 36.012-56.095h34.404L310.421 131.84h-29.664l12.25-52.71-28.342 52.71h-18.598l-2.219-52.71zM555.504 131.838h-60.381l30.263-114.554h59.939l-7.526 29.379h-31.445l-4.136 14.322h32.029l-7.525 27.747h-31.586l-3.401 13.728h31.445zM563.909 131.838l30.846-114.554h29.081l-29.524 114.554zM643.868 25.434c0 4.32-3.166 7.234-6.909 7.234v-.028c-3.833.028-6.926-2.885-6.926-7.206s3.093-7.2 6.926-7.2c3.743 0 6.909 2.88 6.909 7.2m2.785 0c0-5.933-4.578-9.385-9.694-9.385-5.138 0-9.71 3.452-9.71 9.385 0 5.94 4.572 9.386 9.71 9.386 5.116 0 9.694-3.446 9.694-9.386m-11.302.802h1.048l2.404 4.241h2.639l-2.662-4.42c1.384-.096 2.505-.774 2.505-2.629 0-2.314-1.586-3.059-4.276-3.059h-3.883v10.108h2.225zm0-1.72v-2.427h1.563c.84 0 1.995.073 1.995 1.11 0 1.115-.594 1.317-1.586 1.317z"/></g></svg>